# xmcd
#
# Track frame offsets: 
#        150
#        19524
#        37452
#        57493
#        76581
#        91319
#        107925
#        128503
#        146761
#        167155
#
# Disc length: 2449 seconds
#
# Revision: 3
# Processed by: cddbd v1.5.2PL0 Copyright (c) Steve Scherf et al.
# Submitted via: ExactAudioCopy v1.0b3
#
DISCID=82098f0a
DTITLE=黃征 - 一個人的戰役
DYEAR=2005
DGENRE=CPop
TTITLE0=地下鐵
TTITLE1=一個人的戰役
TTITLE2=野菊花
TTITLE3=改變
TTITLE4=少不了
TTITLE5=I Can
TTITLE6=塞維利亞黃昏
TTITLE7=暴雨將至
TTITLE8=黃氏情歌
TTITLE9=颱風
EXTD=
EXTT0=ꁠᠽ랰ՈÁúÈª
EXTT1=礤Հ랸ՊÁúÈª
EXTT2=랰Ո럀ՌÁúÈª
EXTT3=랸Պ럈ՎÁúÈª
EXTT4=럀Ռ럐ՐÁúÈª
EXTT5=럈Վ럘ՒÁúÈª
EXTT6=럐Ր럠ՔÁúÈª
EXTT7=럘Ւ럨ՖÁúÈª
EXTT8=럠Ք런՘ÁúÈª
EXTT9=럨Ֆ靨±ÁúÈª
PLAYORDER=
